<?xml version="1.0" standalone="yes"?>

<svg version="1.1" viewBox="0.0 0.0 1024.0 1024.0" fill="none" stroke="none" stroke-linecap="square" stroke-miterlimit="10" xmlns="http://www.w3.org/2000/svg" xmlns:xlink="http://www.w3.org/1999/xlink"><clipPath id="p.0"><path d="m0 0l1024.0 0l0 1024.0l-1024.0 0l0 -1024.0z" clip-rule="nonzero"></path></clipPath><g clip-path="url(#p.0)"><path fill="#000000" fill-opacity="0.0" d="m0 0l1024.0 0l0 1024.0l-1024.0 0z" fill-rule="nonzero"></path><path fill="#000000" fill-opacity="0.0" d="m457.09998 577.11316l0 0" fill-rule="nonzero"></path><path stroke="#b7b7b7" stroke-width="16.0" stroke-linejoin="round" stroke-linecap="butt" d="m457.09998 577.11316l0 0" fill-rule="nonzero"></path><path fill="#000000" d="m457.09842 287.69302l0 0c0 -94.64508 -76.724976 -171.37009 -171.37006 -171.37009l0 0c-45.45018 0 -89.03883 18.055016 -121.176956 50.19314c-32.138123 32.138123 -50.19313 75.726776 -50.19313 121.17694l0 0c0 94.64508 76.72499 171.37009 171.37009 171.37009l0 0c94.64508 0 171.37006 -76.725006 171.37006 -171.37009z" fill-rule="nonzero"></path><path fill="#b7b7b7" d="m909.62946 287.69302l0 0c0 -94.64508 -76.72504 -171.37009 -171.37012 -171.37009l0 0c-45.450134 0 -89.03882 18.055016 -121.17694 50.19314c-32.138123 32.138123 -50.193115 75.726776 -50.193115 121.17694l0 0c0 94.64508 76.724976 171.37009 171.37006 171.37009l0 0c94.64508 0 171.37012 -76.725006 171.37012 -171.37009z" fill-rule="nonzero"></path><path fill="#b7b7b7" d="m457.09842 736.31793l0 0c0 -94.64508 -76.724976 -171.37012 -171.37006 -171.37012l0 0c-45.45018 0 -89.03883 18.055054 -121.176956 50.193176c-32.138123 32.138123 -50.19313 75.726746 -50.19313 121.17694l0 0c0 94.64508 76.72499 171.37006 171.37009 171.37006l0 0c94.64508 0 171.37006 -76.724976 171.37006 -171.37006z" fill-rule="nonzero"></path><path fill="#000000" d="m909.62946 736.31793l0 0c0 -94.64508 -76.72504 -171.37012 -171.37012 -171.37012l0 0c-45.450134 0 -89.03882 18.055054 -121.17694 50.193176c-32.138123 32.138123 -50.193115 75.726746 -50.193115 121.17694l0 0c0 94.64508 76.724976 171.37006 171.37006 171.37006l0 0c94.64508 0 171.37012 -76.724976 171.37012 -171.37006z" fill-rule="nonzero"></path><path fill="#ffffff" d="m372.02966 314.07657l337.88977 337.8898l-57.95276 57.95276l-337.88977 -337.8898z" fill-rule="nonzero"></path><path fill="#000000" d="m780.22906 699.38403l-455.622 -455.62204l-80.8504 80.8504l455.622 455.62204z" fill-rule="nonzero"></path><path fill="#b7b7b7" d="m243.77135 699.38403l455.622 -455.62204l80.8504 80.8504l-455.62204 455.62204z" fill-rule="nonzero"></path></g></svg>

